/* XPM */
static char *_5c707760b6f4d6da6323ada623ae402[] = {
/* columns rows colors chars-per-pixel */
"64 62 256 2 ",
"   c black",
".  c #0000A8",
"X  c #00A800",
"o  c #00A8A8",
"O  c #A80000",
"+  c #A800A8",
"@  c #A85400",
"#  c gray66",
"$  c gray33",
"%  c #5454FC",
"&  c #54FC54",
"*  c #54FCFC",
"=  c #FC5454",
"-  c #FC54FC",
";  c #FCFC54",
":  c gray99",
">  c #ECECEC",
",  c gainsboro",
"<  c #D0D0D0",
"1  c #C0C0C0",
"2  c #B4B4B4",
"3  c gray66",
"4  c #989898",
"5  c gray55",
"6  c #7C7C7C",
"7  c gray44",
"8  c #646464",
"9  c gray33",
"0  c #484848",
"q  c gray22",
"w  c #2C2C2C",
"e  c #202020",
"r  c #FC0000",
"t  c #EC0000",
"y  c #E00000",
"u  c #D40000",
"i  c #C80000",
"p  c #BC0000",
"a  c #B00000",
"s  c #A40000",
"d  c #980000",
"f  c #880000",
"g  c #7C0000",
"h  c #700000",
"j  c #640000",
"k  c #580000",
"l  c #4C0000",
"z  c #400000",
"x  c #FCD8D8",
"c  c #FCB8B8",
"v  c #FC9C9C",
"b  c #FC7C7C",
"n  c #FC5C5C",
"m  c #FC4040",
"M  c #FC2020",
"N  c #FC0000",
"B  c #FCA85C",
"V  c #FC9840",
"C  c #FC8820",
"Z  c #FC7800",
"A  c #E46C00",
"S  c #CC6000",
"D  c #B45400",
"F  c #9C4C00",
"G  c #FCFCD8",
"H  c #FCFCB8",
"J  c #FCFC9C",
"K  c #FCFC7C",
"L  c #FCF85C",
"P  c #FCF440",
"I  c #FCF420",
"U  c #FCF400",
"Y  c #E4D800",
"T  c #CCC400",
"R  c #B4AC00",
"E  c #9C9C00",
"W  c #848400",
"Q  c #706C00",
"!  c #585400",
"~  c #404000",
"^  c #D0FC5C",
"/  c #C4FC40",
"(  c #B4FC20",
")  c #A0FC00",
"_  c #90E400",
"`  c #80CC00",
"'  c #74B400",
"]  c #609C00",
"[  c #D8FCD8",
"{  c #BCFCB8",
"}  c #9CFC9C",
"|  c #80FC7C",
" . c #60FC5C",
".. c #40FC40",
"X. c #20FC20",
"o. c #00FC00",
"O. c #00FC00",
"+. c #00EC00",
"@. c #00E000",
"#. c #00D400",
"$. c #04C800",
"%. c #04BC00",
"&. c #04B000",
"*. c #04A400",
"=. c #049800",
"-. c #048800",
";. c #047C00",
":. c #047000",
">. c #046400",
",. c #045800",
"<. c #044C00",
"1. c #044000",
"2. c #D8FCFC",
"3. c #B8FCFC",
"4. c #9CFCFC",
"5. c #7CFCF8",
"6. c #5CFCFC",
"7. c #40FCFC",
"8. c #20FCFC",
"9. c #00FCFC",
"0. c #00E4E4",
"q. c #00CCCC",
"w. c #00B4B4",
"e. c #009C9C",
"r. c #008484",
"t. c #007070",
"y. c #005858",
"u. c #004040",
"i. c #5CBCFC",
"p. c #40B0FC",
"a. c #20A8FC",
"s. c #009CFC",
"d. c #008CE4",
"f. c #007CCC",
"g. c #006CB4",
"h. c #005C9C",
"j. c #D8D8FC",
"k. c #B8BCFC",
"l. c #9C9CFC",
"z. c #7C80FC",
"x. c #5C60FC",
"c. c #4040FC",
"v. c #2024FC",
"b. c #0004FC",
"n. c #0000FC",
"m. c #0000EC",
"M. c #0000E0",
"N. c #0000D4",
"B. c #0000C8",
"V. c #0000BC",
"C. c #0000B0",
"Z. c #0000A4",
"A. c #000098",
"S. c #000088",
"D. c #00007C",
"F. c #000070",
"G. c #000064",
"H. c #000058",
"J. c #00004C",
"K. c #000040",
"L. c #282828",
"P. c #FCE034",
"I. c #FCD424",
"U. c #FCCC18",
"Y. c #FCC008",
"T. c #FCB400",
"R. c #B420FC",
"E. c #A800FC",
"W. c #9800E4",
"Q. c #8000CC",
"!. c #7400B4",
"~. c #60009C",
"^. c #500084",
"/. c #440070",
"(. c #340058",
"). c #280040",
"_. c #FCD8FC",
"`. c #FCB8FC",
"'. c #FC9CFC",
"]. c #FC7CFC",
"[. c #FC5CFC",
"{. c #FC40FC",
"}. c #FC20FC",
"|. c #FC00FC",
" X c #E000E4",
".X c #C800CC",
"XX c #B400B4",
"oX c #9C009C",
"OX c #840084",
"+X c #6C0070",
"@X c #580058",
"#X c #400040",
"$X c #FCE8DC",
"%X c #FCE0D0",
"&X c #FCD8C4",
"*X c #FCD4BC",
"=X c #FCCCB0",
"-X c #FCC4A4",
";X c #FCBC9C",
":X c #FCB890",
">X c #FCB080",
",X c #FCA470",
"<X c #FC9C60",
"1X c #F0945C",
"2X c #E88C58",
"3X c #DC8854",
"4X c #D08050",
"5X c #C87C4C",
"6X c #BC7848",
"7X c #B47044",
"8X c #A86840",
"9X c #A0643C",
"0X c #9C6038",
"qX c #905C34",
"wX c #885830",
"eX c #80502C",
"rX c #744C28",
"tX c #6C4824",
"yX c #5C4020",
"uX c #543C1C",
"iX c #483818",
"pX c #403018",
"aX c #382C14",
"sX c #28200C",
"dX c #600064",
"fX c #006464",
"gX c #006060",
"hX c #00001C",
"jX c #00002C",
"kX c #302410",
"lX c #480048",
"zX c #500050",
"xX c #000034",
"cX c gray11",
"vX c #4C4C4C",
"bX c gray36",
"nX c gray25",
"mX c gray19",
"MX c #343434",
"NX c #D8F4F4",
"BX c #B8E8E8",
"VX c #9CDCDC",
"CX c #74C8C8",
"ZX c #48C0C0",
"AX c #20B4B4",
"SX c #20B0B0",
"DX c #00A4A4",
"FX c #009898",
"GX c #008C8C",
"HX c #008484",
"JX c #007C7C",
"KX c #007878",
"LX c #007474",
"PX c #007070",
"IX c #006C6C",
"UX c #980088",
/* pixels */
"$ $ $ $ $ $ $ $ $ $ 0 A.C.C.C.C.C.C.C.C.C.C.C.C.C.Z.S.e q G.S.A.A.Z.A.A.A.A.A.A.S.G.K.e 0 0 0 0 0 0 0 0 0 0 $ $ $ $ $ $ $ $ $ $ ",
"$ $ $ $ $ $ $ $ $ $ 0 V.N.N.N.B.N.N.N.N.N.N.B.N.N.V.S.e q S.C.C.. . Z.Z.Z.Z.A.Z.A.G.K.e q G.S.A.A.A.A.S.S.D.G.0 0 0 0 0 0 0 0 0 ",
"A.A.A.A.S.S.8 U e $ 0 V.N.B.V.B.V.B.B.B.B.B.V.V.V.A.G.e q A.V.. A.A.A.A.A.A.A.A.S.H.xXe q S.V.B.B.B.B.B.V.. Z.A.$ U bXS.S.S.S.S.",
"V.V.V.C.^.8 B G e $ 0 $ A.S.h.$ $ $ $ $ $ $ $ $ $ 0 nXe q $ $ $ vXvX$ $ $ $ vX0 0 nXq e q $ h.h.h.h.h.Z.Z.h.h.h.5 G B 8 h.C.C.C.",
"C.C.C.A.B U G G C U U U     U U U U U U U U U U U U U U U U U U U U U U U U U U U U U U U U U U U U U     U U U G G U U B A.Z.. ",
"C.. Z.S.S S S U F F F F w       F F F F F F F F F F F F F F F F F F F F F F F F F F F F F F F F F F     cX  F F F B S S S (.S.Z.",
"C.. A.A.(.(.nXC e $ $ e e d a d     L.L.L.L.L.L.L.L.L.L.L.L.L.L.L.L.L.L.L.L.L.L.L.L.L.L.L.L.L.L.    h j     e ).q S q mX).G.S.A.",
"Z.Z.A.A.S.G.J.w e L.0 8 8 u t u O d f g j   q q 0 0 0 $ $ $ $ $ $ $ $ $ $ $ $ $ 0 0 0 q q q f d d d s f ).J.G.F.F.G.G.G.D.S.S.A.",
"S.S.S.S.F.H.J.xXe L.0 h.^.u r y y i p O d d f d s a m : 0 : m a s eX2   4 eXf f f s a i i u u y u i p d ).G.F.S.S.S.D.D.S.S.S.S.",
"F.F.F.G.H.xXxXjXe L.0 S.^.i r y y u i p a O O a p u m : 0 : m u p F 2   4 d d d O i u t M M r r y u p d ).G.F.F.F.G.G.G.G.G.G.G.",
"J.K.K.K.xXe e e e L.0 S.^.i r y y u i p a O O a p y m : 0 : m y p F 2   4 d d d a i u t M M r r y u p d ).J.J.J.J.J.J.J.J.J.J.J.",
"e e e e e L.L.L.L.q $ 0 ^.u r y y u i p a O O a p y m : 0 : m y p F 2   4 d d d a i u t M M r r y u p d ).xXxXxXxXxXjXjXjXjXjXjX",
"L.L.L.L.L.L.L.L.L.q $ 0 /.u r y y u i p a O O a p y m : 0 : m y p F 2   4 d d d a i u t M M r r y u p d ).jXjXjXjXe e e e e e e ",
"q q q q q q q q q q $ 0 zXu r y y u i p a O O a p y m : 0 : m y p F 2   4 d d d a i u t M M r r y u p d cXjXjXq q q q q q q q q ",
"$ 0 q q q q q q q q $ 0 lXu r y y u i p a O O a p y m : 0 : m y p F 2   4 d d d a i u t M M r r y u p d e e K.H.H.H.H.H.H.H.H.H.",
"A.A.A.A.A.A.S.S.G.K.e $ 0 u r y y u i p a O O a p u m : 0 : m y p F 2   4 d d d a i u t M M r r y u p d ).H.F.S.A.A.A.A.A.A.A.A.",
"V.V.V.V.V.C.. A.F.K.e $ 0 u r y y u i p a O O a i M b : 0 : n m m 8X2   4 eXf d O i u t M M r r y u p d ).G.S.C.B.B.B.B.B.B.B.B.",
"C.. . . . . Z.S.G.K.e $ 0 u r y y u i p a O O O p 4X: : 0 : > > , < 2   4 4 8 f s p u t M M r r y u p d ).G.S.. V.V.V.V.V.V.V.V.",
"Z.A.A.A.A.A.A.D.G.K.e 0 $ u r y y u i p a O s eX7 , : $ 0 : > > , < 2 #     6 7 0 a u t M M r r y u p d ).G.S.A.Z.Z.Z.Z.A.A.A.Z.",
"Z.A.A.A.A.A.A.D.H.xXe 0 $ u r y y u i p a s d 7 1 L.0 : 4 0 q q L.e e   4 4     4 7 p y M M r r y u p d ).G.S.A.A.A.A.A.S.S.A.A.",
"Z.A.A.A.A.A.A.F.J.xXe 0 $ u r y y u i p a s 7 1 L.7 : $ 0 : > > , < 2 #     6 7   # 7 i M M r r y u p d ).G.S.A.A.A.A.A.S.S.A.A.",
"A.A.S.S.A.A.A.F.J.xXe q $ u r y y u i p a eX2   7 , 0 : : $ q q 5 < 2 # 4 7   7 7   2 m M M r r y u p d ).G.S.A.A.A.A.A.S.S.A.A.",
"A.A.S.S.A.A.S.G.J.xXe q @Xu r y y u i p eX#   7 1 L.: : 5 0 q q $ < 2 # 4 4 6   4 7   < m M r r y u p d ).G.D.A.A.A.A.A.S.S.A.A.",
"A.A.A.A.A.A.S.G.J.jXe q /.u r y y u i a 8 #   1 L., : 5 0 0 q $ 5 < 2 $   L.6 7   #   < 4 m r r y u p d ).H.F.S.S.S.S.S.S.A.A.A.",
"S.A.S.S.S.S.G.J.xXjXe q ^.m m m m M p eX5   2   1 , 5 $ 0 0 $ 5 , < $       L.7 4   2   > n m m M i a f ).xXJ.H.G.G.G.G.F.D.S.S.",
"G.G.G.G.G.H.J.xXjXjXe q h.: : : < 2 4 5 5   2   1 # 0 $ 0 0 $ 5 , $ e         L.4   7   > > > , < # 5 7 e jXxXK.K.K.K.K.J.J.H.G.",
"K.K.K.K.xXxXe e e e q q h.6 6 q q q       #   1 1 , 5 $ 0 0 q $ $ e e           L.7   < 0 8 $ $ L.      e e e e e e e e e xXxXK.",
"e e e e e e 0 0 0 0 0 0 h.: : : < 2 4 5 5 #   1 1 , : 5 0 0 q q L.e e   L.        #   < > > > , < # 5 7 e e q q q q L.L.L.e e e ",
"0 8 8 7 S.S.S.S.S.D.0 e ^.m m m m M p 0X5 #   1 1 , : : 5 0 q q L.e e L.4 L.      #   < > n m m M i a f 0 0 $ $ $ $ $ $ $ q q q ",
"8 h.. V.B.B.V.V.C.A.G.e ^.i r y y u i a 5 #   1 L.5 : : : $ q q L.e L.8 4 4 L.L.L.#   < > m r r y i p d ).G.F.S.S.$ 0 0 0 0 0 $ ",
"8 . B.B.B.V.C.C.. A.G.e ^.m m m m M p 0X5 #   1 L.L.5 : 5 0 q q L.e e   8 4 6 7 4 #   < > n m m M i a f ).G.S.. C.Z.Z.Z.A.D.q $ ",
"8 . B.C.. Z.Z.Z.Z.A.G.e h.: : : < 2 4 5 5 #   1 L.L.0 $ 0 0 q q $ e e     8 6 7 4 #   < > > > , < # 5 7 ).G.S.Z.. . . . A.F.q $ ",
"8 V.V.Z.A.A.Z.Z.A.A.G.e h.6 6 q q q       #   1 $ L.0 $ 0 0 q 5 , $ e       6 7 4 7   < 0 8 $ $ L.      J.G.D.A.A.Z.A.A.S.G.q 0 ",
"8 V.V.Z.A.A.Z.Z.A.S.G.e h.: : : < 2 5 5 5   7   1 $ 0 $ 0 0 5 > , < $         7 4   2   > > > , < # 5 7 ).G.D.S.A.Z.A.A.A.G.q 0 ",
"8 V.V.Z.A.A.Z.Z.A.S.H.e ^.m m m m M p eX5   2   1 , 5 $ 0 5 > > , < $         7 4   2   > n m m M i a f ).G.D.S.A.A.A.A.A.G.q 0 ",
"8 V.V.Z.Z.Z.A.Z.A.S.H.e /.i r y y u i p eX#   1 L., : : : : > > , $ e       6 7   #   < 5 m r r y u p d ).H.F.S.S.S.S.S.S.H.q q ",
"8 V.V.. Z.Z.Z.Z.A.S.H.e (.i r y y u i p O #   1 1 L.: : : : > > , e e     4 6   4 7   > = M r r y u p d ).K.K.J.H.H.H.H.J.K.q q ",
"8 V.V.Z.Z.Z.A.A.A.S.H.e (.i r y y u i p a eX2   1 , 0 : : : > > , $ e   4 0   7 7   2 7 m M r r y u p d e e e e e e e e e e e q ",
"8 V.V.Z.A.A.Z.A.A.S.J.e #Xi r y y u i p a a 8X1 L., : $ 0 : > > , < 2 #     6 0   # 5 m M M r r y u p d e e q q q q q q q q q q ",
"8 V.V.Z.A.A.A.Z.A.S.K.e #Xu r y y u i p a O p 7X1 L.0 : : 0 q q L.e e   4 4     4 5 i u M M r r y u p d ).K.H.F.D.S.D.D.D.G.q $ ",
"8 V.V.Z.A.A.A.A.A.F.K.e 0 u r y y u i p a O O i 7X, # $ 0 : > > , < 2 7     6 7 7 a u t M M r r y u p d ).G.S.. V.V.V.C.Z.F.q $ ",
"8 . V.. Z.Z.Z.A.S.G.e L.0 u r y y u i p a O O a i m 4 : 0 : > > , < 2   4 4 8 f s i u t M M r r y u p d ).G.S.B.N.N.B.B.A.G.L.0 ",
"8 . V.. Z.A.Z.A.S.H.e L.0 u r y y u i p a O O a p u m : 0 : n m m 8X2   4 eXf d O i u t M M r r y u p d ).G.S.C.V.B.V.. S.H.L.0 ",
"8 . C.Z.A.A.A.S.D.J.e L.0 u r y y u i p a O O a p y m : 0 : m y p F 2   4 d d d a i u t M M r r y u p d ).G.S.A.Z.. Z.A.D.J.L.q ",
"0 A.Z.Z.A.A.D.F.G.q e q 0 u r y y u i p a O O a p y m : 0 : m y p F 2   4 d d d a i u t M M r r y u p d ).G.S.A.Z.Z.Z.A.F.J.L.q ",
"0 A.A.A.A.D.G.H.K.e L.q 0 u r y y u i p a O O a p y m : 0 : m y p F 2   4 d d d a i u t M M r r y u p d ).G.S.A.A.A.A.A.F.J.L.q ",
"0 G.F.G.G.H.J.J.xXe L.q 0 u r y y u i p a O O a p y m : 0 : m y p F 2   4 d d d a i u t M M r r y u p d ).G.D.S.A.A.A.S.F.J.e q ",
"0 q e e e xXxXxXjXe q 0 0 u r y y u i p a O O a p y m : 0 : m y p F 2   4 d d d a i u t M M r r y u p d ).G.D.S.A.A.S.S.F.J.e q ",
"$ $ $ 0 q e e L.e L.q 0 q u r y y u i p a O O a p y m : 0 : m y p F 2   4 d d d a i u t M M r r y u p d ).G.D.S.A.A.S.S.G.K.e q ",
"0 0 0 0 0 0 0 L.L.L.q 0 q u r y y u i p a O O a p y m : 0 : m y p F 2   4 d d d a i u t M M r r y u p d ).G.D.S.S.S.S.S.G.K.e q ",
"0 D.A.A.Z.A.A.S.F.0 0 $ q i r y y u i p a O O a p y m : 0 : m y p F 2   4 d d d a i u t M M r r y u p d ).H.G.F.F.F.F.G.H.xXe q ",
"0 A.V.B.B.B.B.B.C.Z.A.S.zXi r y y u i p a O O a p y m : 0 : m y p F 2   4 d d d a i u t M M r r y u p d ).xXK.K.K.K.K.K.xXe L.q ",
"0 A.B.B.C.C.B.B.B.B.B.V./.i r y y u i p a O O a p y m : 0 : m y p F 2   4 d d d a i u t M M r r y u p d e e e e e e e e e L.q 0 ",
"0 Z.B.C.. . . C.. C.V.B.^.i r y y u i p O O O O p u m : 0 : m u p F 2   4 d d d O i u t M M r r y u p d e e L.L.L.L.L.L.q q 0 0 ",
"0 A.B.C.Z.Z.A.A.A.A.A.Z./.s i a a a d d d f f d s i m : 0 : m i a d 2   4 tXh h d O i y M M r r y i a g e e q q q q q q 0 0 0 $ ",
"0 A.B.C.Z.Z.A.A.A.A.A.A.A.(.(.).).).).).).).).).#Xg eX#   # eXf f g 8   8         j d a i i i u p O f e e 0 0 0 0 0 0 0 $ $ $ $ ",
"0 A.. A.A.A.S.S.S.A.S.A.A.S.D.F.G.G.G.G.G.G.G.H.J.).).H.H.H.).).).e q 0 ).K.J.J.J.).).#Xq q q q q q 0 0 $ D.Z.Z.Z.A.A.S.S.0 0 $ ",
"0 S.S.F.G.G.G.G.G.G.G.G.G.G.G.G.G.G.G.G.G.G.H.H.H.J.J.J.J.J.J.J.xXjXe q 0 F.D.D.F.F.G.G.G.H.$ G.G.F.D.D.S.A.. . . . Z.Z.Z.F.e $ ",
"0 G.G.K.K.xXxXxXxXxXxXxXxXxXxXxXxXxXxXxXxXxXxXxXxXxXxXxXxXxXxXxXxXjXe L.0 D.S.S.D.F.F.F.G.G.0 A.A.A.A.A.Z.Z.Z.Z.Z.Z.Z.A.A.G.e $ ",
"0 q e e e e e e e e e e e e e e e e e e e e e e e e e e e e e e e e e L.0 q 0 q H.H.H.H.H.J.0 A.A.S.S.A.A.A.S.A.S.A.A.S.D.J.e $ ",
"$ 0 q q q L.L.L.L.L.L.L.L.L.L.L.L.L.L.L.L.L.L.L.L.L.L.L.L.L.L.L.L.L.L.L.q $ $ q q e e e e e q G.G.H.H.H.H.H.H.H.H.H.H.H.J.K.e $ ",
"$ $ $ $ 0 0 0 0 0 0 0 0 q q q q q q q q q q q q q q q q q q q q q q q q q $ $ $ $ q q q q q q K.K.e e e e e e e e e e e e e e $ "
};
